<?xml version="1.0" standalone="no"?>
<!DOCTYPE svg PUBLIC "-//W3C//DTD SVG 1.1//EN" "http://www.w3.org/Graphics/SVG/1.1/DTD/svg11.dtd">
<!--Generator: Xara Designer (www.xara.com), SVG filter version: 6.0.0.4-->
<svg stroke-width="0.501" stroke-linejoin="bevel" fill-rule="evenodd" xmlns:xlink="http://www.w3.org/1999/xlink" xmlns="http://www.w3.org/2000/svg" version="1.1" overflow="visible" width="595.277pt" height="841.891pt" viewBox="0 0 595.277 841.891">
 <defs>
	</defs>
 <g id="Document" fill="none" stroke="black" font-family="Times New Roman" font-size="16" transform="scale(1 -1)">
  <g id="Spread" transform="translate(0 -841.891)">
   <g id="Layer 1">
    <path d="M 19.878,665.33 C 18.883,665.889 18.526,667.141 19.08,668.138 C 21.265,672.051 25.577,675.111 31.426,677.515 L 36.054,679.12 L 35.073,750.508 C 35.062,751.128 35.339,751.714 35.82,752.105 L 41.883,757.002 C 41.864,757.113 41.854,757.229 41.854,757.347 L 41.433,808.74 C 41.423,809.858 42.327,810.772 43.448,810.772 L 50.718,810.772 C 51.428,810.772 52.084,810.397 52.447,809.787 L 56.72,802.603 L 59.415,802.603 L 60.78,809.166 C 60.974,810.1 61.8,810.772 62.754,810.772 L 71.63,810.772 C 72.542,810.772 73.34,810.158 73.575,809.277 L 75.463,802.223 L 77.442,802.223 L 81.836,809.77 C 82.196,810.389 82.861,810.772 83.579,810.772 L 91.7,810.772 C 92.782,810.772 93.671,809.914 93.712,808.831 L 95.646,756.489 L 95.644,756.516 C 95.918,756.653 96.222,756.728 96.54,756.728 L 100.73,756.728 C 101.551,756.728 102.291,756.227 102.599,755.464 L 105.495,748.262 L 109.309,748.262 L 110.865,755.156 C 111.072,756.073 111.89,756.728 112.832,756.728 L 120.527,756.728 C 121.386,756.728 122.151,756.182 122.431,755.368 L 125.01,747.884 L 128.243,747.884 L 130.751,755.353 C 131.025,756.174 131.796,756.728 132.662,756.728 L 134.359,756.728 L 134.297,770.084 C 134.294,770.585 134.478,771.068 134.812,771.441 L 162.008,801.659 C 162.819,802.56 164.24,802.545 165.03,801.626 L 191.093,771.409 C 191.397,771.056 191.571,770.608 191.581,770.142 L 191.899,756.728 L 196.968,756.728 C 198.048,756.728 198.937,755.871 198.979,754.794 L 201.898,680.756 C 203.525,680.403 205.167,679.991 206.993,679.563 C 211.487,678.499 217.735,675.758 219.971,674.605 C 221.097,674.375 221.796,673.269 221.567,672.162 C 221.338,671.039 220.232,670.339 219.124,670.565 C 218.483,670.842 210.462,674.725 205.985,675.785 C 178.928,682.199 138.371,683.69 128.318,670.535 C 127.523,669.72 126.218,669.699 125.397,670.495 C 124.579,671.29 124.562,672.595 125.355,673.416 C 128.722,676.873 133.126,679.631 138.751,681.589 L 138.897,681.628 L 123.133,682.058 C 101.863,682.413 82.411,681.993 66.294,680.452 C 42.055,678.132 26.712,673.33 22.686,666.128 C 22.127,665.133 20.875,664.776 19.878,665.33 Z M 40.065,680.305 L 41.191,680.618 L 45.802,681.688 C 51.793,682.917 58.559,683.858 65.897,684.563 C 69.807,684.936 73.907,685.244 78.175,685.493 L 90.572,686.019 L 94.694,686.135 L 103.21,686.264 L 102.908,717.641 C 102.908,724.945 107.337,731.937 114.159,731.937 C 120.613,731.937 128.631,726.015 128.631,718.322 L 128.424,686.08 L 136.009,685.888 L 140.128,685.805 L 140.443,685.805 C 147.109,685.822 169.341,685.355 183.334,683.752 L 188.046,683.086 L 192.166,682.469 L 197.836,681.509 L 195.031,752.699 L 191.995,752.699 L 189.766,744.475 C 189.527,743.598 188.731,742.989 187.822,742.989 L 181.375,742.989 C 180.502,742.989 179.728,743.551 179.459,744.382 L 176.759,752.699 L 173.755,752.699 L 171.464,744.462 C 171.222,743.591 170.429,742.989 169.525,742.989 L 163.504,742.989 C 162.577,742.989 161.772,743.619 161.547,744.515 L 159.508,752.699 L 154.167,752.699 L 152.248,743.747 C 152.05,742.818 151.229,742.155 150.279,742.155 L 142.914,742.155 C 142.005,742.155 141.208,742.762 140.969,743.636 L 138.49,752.699 L 136.646,752.699 C 136.563,752.687 136.477,752.682 136.392,752.682 C 136.296,752.679 136.203,752.687 136.112,752.699 L 134.11,752.699 L 131.602,745.228 C 131.328,744.407 130.557,743.855 129.693,743.855 L 123.575,743.855 C 122.713,743.855 121.948,744.399 121.668,745.212 L 119.089,752.699 L 114.441,752.699 L 112.885,745.802 C 112.678,744.885 111.86,744.233 110.921,744.233 L 104.135,744.233 C 103.311,744.233 102.571,744.732 102.263,745.494 L 99.367,752.699 L 97.688,752.699 L 93.707,745.971 C 93.347,745.361 92.689,744.986 91.982,744.984 L 84.639,744.953 C 83.727,744.948 82.924,745.558 82.685,746.439 L 80.963,752.785 L 78.709,752.726 L 74.524,745.913 C 74.158,745.316 73.509,744.953 72.809,744.953 L 68.125,744.953 C 67.415,744.953 66.76,745.323 66.395,745.932 L 62.346,752.699 L 58.733,752.699 L 55.736,746.471 C 55.401,745.774 54.696,745.331 53.923,745.331 L 48.446,745.331 C 47.618,745.331 46.872,745.837 46.57,746.608 L 43.886,753.442 L 39.114,749.587 L 40.065,680.305 Z M 201.901,680.736 L 201.898,680.756 L 201.901,680.736 Z M 53.736,710.087 L 53.736,724.251 C 53.736,725.362 54.638,726.266 55.751,726.266 C 56.862,726.266 57.766,725.362 57.766,724.251 L 57.766,710.087 C 57.766,708.974 56.862,708.073 55.751,708.073 C 54.638,708.073 53.736,708.974 53.736,710.087 Z M 75.599,710.087 L 75.599,724.251 C 75.599,725.362 76.5,726.266 77.613,726.266 C 78.724,726.266 79.628,725.362 79.628,724.251 L 79.628,710.087 C 79.628,708.974 78.724,708.073 77.613,708.073 C 76.5,708.073 75.599,708.974 75.599,710.087 Z M 142.272,710.087 L 142.272,724.251 C 142.272,725.362 143.173,726.266 144.286,726.266 C 145.396,726.266 146.3,725.362 146.3,724.251 L 146.3,710.087 C 146.3,708.974 145.396,708.073 144.286,708.073 C 143.173,708.073 142.272,708.974 142.272,710.087 Z M 168.941,710.087 L 168.941,724.251 C 168.941,725.362 169.843,726.266 170.955,726.266 C 172.066,726.266 172.97,725.362 172.97,724.251 L 172.97,710.087 C 172.97,708.974 172.066,708.073 170.955,708.073 C 169.843,708.073 168.941,708.974 168.941,710.087 Z M 148.65,746.185 L 150.569,755.134 C 150.768,756.063 151.589,756.728 152.54,756.728 L 161.085,756.728 C 162.008,756.728 162.814,756.096 163.038,755.2 L 165.078,747.018 L 167.994,747.018 L 170.286,755.252 C 170.527,756.124 171.32,756.728 172.227,756.728 L 178.225,756.728 C 179.096,756.728 179.87,756.164 180.139,755.333 L 182.838,747.018 L 186.278,747.018 L 187.952,753.203 L 187.573,769.324 L 163.474,797.263 L 138.328,769.324 L 138.386,756.728 L 140.028,756.728 C 140.935,756.728 141.73,756.119 141.969,755.244 L 144.45,746.185 L 148.65,746.185 Z M 71.681,748.982 L 75.849,755.766 C 76.204,756.348 76.831,756.708 77.513,756.725 L 82.441,756.852 C 83.37,756.876 84.193,756.262 84.438,755.366 L 86.17,748.988 L 90.821,749.007 L 91.861,750.77 C 91.834,750.896 91.813,751.027 91.811,751.163 L 89.759,806.743 L 84.737,806.743 L 80.343,799.193 C 79.983,798.574 79.318,798.194 78.603,798.194 L 73.919,798.194 C 73.005,798.194 72.207,798.805 71.972,799.687 L 70.084,806.743 L 64.391,806.743 L 63.026,800.178 C 62.832,799.244 62.006,798.574 61.054,798.574 L 55.577,798.574 C 54.865,798.574 54.207,798.947 53.845,799.556 L 49.571,806.743 L 45.478,806.743 L 45.87,758.362 L 45.872,758.41 C 46.203,758.194 46.472,757.873 46.633,757.471 L 49.819,749.36 L 52.656,749.36 L 55.653,755.585 C 55.988,756.282 56.692,756.728 57.469,756.728 L 63.489,756.728 C 64.196,756.728 64.851,756.355 65.217,755.746 L 69.266,748.982 L 71.681,748.982 Z M 158.848,765.086 L 158.733,768.8 C 158.679,770.535 160.044,771.988 161.782,772.044 C 163.517,772.096 164.97,770.731 165.025,768.994 L 165.141,765.279 C 165.194,763.545 163.829,762.092 162.091,762.036 C 160.357,761.983 158.904,763.348 158.848,765.086 Z M 66.443,772.428 L 66.353,784.175 C 66.343,785.289 67.239,786.198 68.35,786.205 C 69.462,786.215 70.371,785.319 70.379,784.208 L 70.469,772.461 C 70.48,771.348 69.583,770.439 68.473,770.431 C 67.359,770.421 66.451,771.318 66.443,772.428 Z" fill-rule="evenodd" stroke="none" stroke-width="1.259" fill="#000000" marker-start="none" marker-end="none" stroke-miterlimit="79.8403193612775"/>
   </g>
  </g>
 </g>
</svg>
