<?xml version="1.0" standalone="no"?>
<!DOCTYPE svg PUBLIC "-//W3C//DTD SVG 1.1//EN" "http://www.w3.org/Graphics/SVG/1.1/DTD/svg11.dtd">
<!--Generator: Xara Designer (www.xara.com), SVG filter version: 6.0.0.4-->
<svg stroke-width="0.501" stroke-linejoin="bevel" fill-rule="evenodd" xmlns:xlink="http://www.w3.org/1999/xlink" xmlns="http://www.w3.org/2000/svg" version="1.1" overflow="visible" width="595.277pt" height="841.891pt" viewBox="0 0 595.277 841.891">
 <defs>
	</defs>
 <g id="Document" fill="none" stroke="black" font-family="Times New Roman" font-size="16" transform="scale(1 -1)">
  <g id="Spread" transform="translate(0 -841.891)">
   <g id="Layer 1">
    <path d="M 172.379,672.851 C 170.294,673.918 169.093,675.324 168.2,678.262 C 161.424,686.487 154.807,694.221 145.924,701.945 C 143.862,703.698 141.787,704.987 139.676,705.942 C 111.807,694.117 50.644,732.781 37.133,780.663 C 79.293,771.208 100.264,788.681 99.79,822.33 C 143.38,798.079 165.426,738.981 149.64,714.455 C 150.251,711.596 151.332,708.811 153.149,706.136 C 159.793,696.341 166.531,689.632 173.18,683.304 C 175.809,682.278 177.316,680.714 177.921,678.093 C 178.621,675.064 175.002,671.508 172.379,672.851 Z M 100.768,759.987 C 94.249,764.723 75.168,765.035 67.004,763.209 C 60.078,761.656 60.151,749.503 75.382,748.639 C 87.025,747.976 96.036,749.659 100.768,759.987 Z M 123.072,783.75 C 125.915,798.739 114.138,801.748 110.96,795.402 C 107.215,787.923 102.906,769.333 105.925,761.862 C 117.092,763.956 120.9,772.295 123.072,783.75 Z" stroke-linejoin="miter" stroke-linecap="round" stroke="none" stroke-width="1.045" fill="#000000" marker-start="none" marker-end="none" stroke-miterlimit="79.8403193612775"/>
   </g>
  </g>
 </g>
</svg>
