<?xml version="1.0" standalone="no"?>
<!DOCTYPE svg PUBLIC "-//W3C//DTD SVG 1.1//EN" "http://www.w3.org/Graphics/SVG/1.1/DTD/svg11.dtd">
<!--Generator: Xara Designer (www.xara.com), SVG filter version: 6.0.0.4-->
<svg stroke-width="0.501" stroke-linejoin="bevel" fill-rule="evenodd" xmlns:xlink="http://www.w3.org/1999/xlink" xmlns="http://www.w3.org/2000/svg" version="1.1" overflow="visible" width="595.277pt" height="841.891pt" viewBox="0 0 595.277 841.891">
 <defs>
	</defs>
 <g id="Document" fill="none" stroke="black" font-family="Times New Roman" font-size="16" transform="scale(1 -1)">
  <g id="Spread" transform="translate(0 -841.891)">
   <g id="Layer 1">
    <path d="M 61.065,696.487 C 57.772,693.246 55.076,689.355 53.01,684.792 L 40.896,722.078 L 75.193,705.244 C 71.344,703.823 67.888,701.983 64.83,699.707 C 94.329,674.157 117.241,682.354 134.845,693.146 C 115.888,713.546 104.681,727.396 113.239,737.69 L 79.776,780.593 C 77.721,779.722 75.46,779.245 73.09,779.245 C 63.609,779.245 55.905,786.949 55.905,796.43 C 55.905,805.912 63.609,813.615 73.09,813.615 C 82.571,813.615 90.275,805.912 90.275,796.43 C 90.275,791.469 88.167,786.996 84.8,783.86 L 117.749,741.623 C 129.218,749.133 139.665,739.725 158.743,712.796 L 158.769,712.775 C 167.747,727.149 177.124,761.153 166.809,784.626 C 163.704,782.355 160.909,779.56 158.439,776.219 L 154.427,815.22 L 184.424,791.553 C 179.41,790.84 174.843,789.371 170.736,787.116 C 190.135,745.153 165.692,733.993 176.5,675.064 L 176.484,674.97 C 136.508,694.085 107.738,653.511 61.065,696.487 Z M 84.952,796.43 C 84.952,802.975 79.635,808.292 73.09,808.292 C 66.545,808.292 61.228,802.975 61.228,796.43 C 61.228,789.885 66.545,784.568 73.09,784.568 C 79.635,784.568 84.952,789.885 84.952,796.43 Z" stroke="none" fill="#000000" stroke-width="0.184" stroke-linejoin="miter" marker-start="none" marker-end="none" stroke-miterlimit="79.8403193612775"/>
   </g>
  </g>
 </g>
</svg>
